<?xml version="1.0" encoding="iso-8859-1"?>
<!-- Uploaded to: SVG Repo, www.svgrepo.com, Generator: SVG Repo Mixer Tools -->
<svg height="800px" width="800px" version="1.1" id="Layer_1" xmlns="http://www.w3.org/2000/svg" xmlns:xlink="http://www.w3.org/1999/xlink" 
	 viewBox="0 0 512 512" xml:space="preserve">
<path style="fill:#E0E0E2;" d="M479.538,145.297L255.999,53.454L32.46,145.297c-23.761,9.764-38.575-26.191-14.779-35.968
	L248.609,14.45c4.734-1.946,10.044-1.946,14.778,0l230.929,94.878C518.125,119.111,503.29,155.057,479.538,145.297z"/>
<path style="fill:#C7C5CA;" d="M494.316,109.328L263.387,14.45c-2.367-0.972-4.878-1.46-7.39-1.46v40.464l223.539,91.842
	C503.29,155.056,518.125,119.111,494.316,109.328z"/>
<circle style="fill:#797680;" cx="256" cy="33.022" r="33.022"/>
<path style="fill:#FDBF00;" d="M486.926,512H25.07c-10.738,0-19.443-8.705-19.443-19.443V127.313
	c0-10.738,8.705-19.443,19.443-19.443h461.856c10.738,0,19.443,8.705,19.443,19.443v365.244
	C506.369,503.295,497.664,512,486.926,512z"/>
<path style="fill:#FF9800;" d="M486.926,107.87H255.999V512h230.929c10.738,0,19.443-8.705,19.443-19.443V127.313
	C506.369,116.575,497.664,107.87,486.926,107.87z"/>
<path style="fill:#9BFCFF;" d="M427.262,452.336H84.734c-10.738,0-19.443-8.705-19.443-19.443V186.977
	c0-10.738,8.705-19.443,19.443-19.443h342.529c10.738,0,19.443,8.705,19.443,19.443v245.916
	C446.705,443.63,438.001,452.336,427.262,452.336z"/>
<path style="fill:#83C9FF;" d="M427.262,167.534H255.999v284.802h171.265c10.738,0,19.443-8.705,19.443-19.443V186.977
	C446.705,176.239,438.001,167.534,427.262,167.534z"/>
<path style="fill:#B28964;" d="M316.648,232.863c-7.454-12.935-26.207-12.958-33.675,0l-66.042,114.39l-26.974-46.728
	c-7.47-12.932-26.192-12.957-33.675,0c-55.249,95.69-35.696,61.824-84.684,146.673c3.462,3.18,8.064,5.138,13.136,5.138h342.529
	c5.071,0,9.674-1.957,13.136-5.138C419.353,410.745,318.222,235.59,316.648,232.863z"/>
<path style="fill:#2586FD;" d="M176.198,267.191h-30.693c-10.738,0-19.443-8.705-19.443-19.443c0-10.738,8.705-19.443,19.443-19.443
	h30.693c10.738,0,19.443,8.705,19.443,19.443C195.641,258.486,186.936,267.191,176.198,267.191z"/>
<path style="fill:#56565C;" d="M255.999,0v66.044c18.238,0,33.022-14.784,33.022-33.022C289.021,14.784,274.236,0,255.999,0z"/>
<path style="fill:#896746;" d="M440.398,447.198c-21.045-36.453-122.176-211.608-123.75-214.335
	c-7.454-12.935-26.207-12.958-33.675,0l-26.974,46.722v172.751h171.265C432.334,452.336,436.937,450.379,440.398,447.198z"/>
</svg>