<?xml version="1.0" encoding="iso-8859-1"?>
<!-- Uploaded to: SVG Repo, www.svgrepo.com, Generator: SVG Repo Mixer Tools -->
<svg height="800px" width="800px" version="1.1" id="Layer_1" xmlns="http://www.w3.org/2000/svg" xmlns:xlink="http://www.w3.org/1999/xlink" 
	 viewBox="0 0 512 512" xml:space="preserve">
<path style="fill:#E0E0E2;" d="M155.032,356.968c-7.894-7.894-7.894-20.691,0-28.585l86.761-86.761
	c7.892-7.894,20.691-7.894,28.585,0c7.894,7.894,7.894,20.691,0,28.585l-86.761,86.761
	C175.726,364.861,162.926,364.862,155.032,356.968z"/>
<path style="fill:#C7C5CA;" d="M270.378,241.622L270.378,241.622L155.032,356.967l0,0c7.892,7.895,20.692,7.894,28.585,0
	l86.761-86.761C278.272,262.313,278.272,249.516,270.378,241.622z"/>
<g>
	<path style="fill:#B28964;" d="M21.624,490.376L21.624,490.376L21.624,490.376c-28.829-28.827-28.833-75.492,0-104.325
		l95.538-95.538c7.89-7.89,20.692-7.892,28.585,0l75.74,75.74c7.89,7.89,7.892,20.692,0,28.585l-95.539,95.538
		C97.121,519.207,50.456,519.211,21.624,490.376z"/>
	<path style="fill:#B28964;" d="M235.768,351.972l-75.74-75.74c-7.894-7.894-7.894-20.691,0-28.585
		c7.892-7.894,20.691-7.894,28.585,0l75.74,75.74c7.894,7.894,7.894,20.691,0,28.585
		C256.461,359.865,243.662,359.867,235.768,351.972z"/>
</g>
<path style="fill:#2586FD;" d="M241.793,270.207c-61.878-61.877-61.883-162.025,0-223.908c61.731-61.732,162.176-61.732,223.908,0
	c61.732,61.731,61.732,162.176,0,223.908l0,0l0,0C403.825,332.083,303.675,332.09,241.793,270.207z"/>
<path style="fill:#3A4DE2;" d="M465.701,46.299L465.701,46.299L241.793,270.207l0,0c61.882,61.883,162.032,61.877,223.908,0
	C527.433,208.476,527.433,108.03,465.701,46.299z"/>
<path style="fill:#9BFCFF;" d="M296.059,215.942c-31.81-31.808-31.81-83.566,0-115.377c31.81-31.81,83.568-31.811,115.377,0
	c31.809,31.81,31.809,83.568,0,115.377C379.628,247.75,327.868,247.753,296.059,215.942z"/>
<g>
	<path style="fill:#896746;" d="M221.487,366.253l-37.871-37.871L21.624,490.376c28.833,28.834,75.497,28.83,104.325,0
		l95.539-95.539C229.38,386.945,229.376,374.142,221.487,366.253z"/>
	<path style="fill:#896746;" d="M264.353,323.387l-37.871-37.871l-28.585,28.585l37.871,37.871c7.894,7.895,20.692,7.894,28.585,0
		C272.247,344.078,272.247,331.28,264.353,323.387z"/>
</g>
<path style="fill:#83C9FF;" d="M411.435,100.565L411.435,100.565L296.058,215.941l0,0c31.809,31.811,83.569,31.808,115.377,0
	C443.244,184.133,443.244,132.375,411.435,100.565z"/>
</svg>