<?xml version="1.0" encoding="iso-8859-1"?>
<!-- Uploaded to: SVG Repo, www.svgrepo.com, Generator: SVG Repo Mixer Tools -->
<svg height="800px" width="800px" version="1.1" id="Layer_1" xmlns="http://www.w3.org/2000/svg" xmlns:xlink="http://www.w3.org/1999/xlink" 
	 viewBox="0 0 512 512" xml:space="preserve">
<path style="fill:#83C9FF;" d="M187.628,231.335H43.707C19.607,231.335,0,211.728,0,187.628V43.707C0,19.607,19.607,0,43.707,0
	h143.921c24.1,0,43.707,19.607,43.707,43.707v143.921C231.335,211.728,211.728,231.335,187.628,231.335z"/>
<path style="fill:#3A4DE2;" d="M468.293,231.335H324.372c-24.1,0-43.707-19.607-43.707-43.707V43.707
	c0-24.1,19.607-43.707,43.707-43.707h143.921C492.393,0,512,19.607,512,43.707v143.921C512,211.728,492.393,231.335,468.293,231.335
	z"/>
<path style="fill:#2586FD;" d="M187.628,512H43.707C19.607,512,0,492.393,0,468.293V324.372c0-24.1,19.607-43.707,43.707-43.707
	h143.921c24.1,0,43.707,19.607,43.707,43.707v143.921C231.335,492.393,211.728,512,187.628,512z"/>
<path style="fill:#83C9FF;" d="M468.293,512H324.372c-24.1,0-43.707-19.607-43.707-43.707V324.372
	c0-24.1,19.607-43.707,43.707-43.707h143.921c24.1,0,43.707,19.607,43.707,43.707v143.921C512,492.393,492.393,512,468.293,512z"/>
</svg>