<?xml version="1.0" encoding="iso-8859-1"?>
<!-- Uploaded to: SVG Repo, www.svgrepo.com, Generator: SVG Repo Mixer Tools -->
<svg height="800px" width="800px" version="1.1" id="Layer_1" xmlns="http://www.w3.org/2000/svg" xmlns:xlink="http://www.w3.org/1999/xlink" 
	 viewBox="0 0 512 512" xml:space="preserve">
<path style="fill:#2586FD;" d="M340.365,199.589v43.638l-66.704,28.396V94.5c0-23.355-35.311-23.33-35.311,0v202.354
	c-0.021,0.486-0.019,0.973,0,1.461v29.184l-66.714-28.401V255.46c0-23.355-35.311-23.33-35.311,0v55.31
	c0,7.079,4.227,13.472,10.741,16.244l91.284,38.86v30.015c0,23.355,35.311,23.33,35.311,0v-85.89l91.275-38.857
	c6.513-2.772,10.741-9.167,10.741-16.244v-55.31C375.676,176.235,340.365,176.259,340.365,199.589z"/>
<path style="fill:#3A4DE2;" d="M340.365,199.589v43.638l-66.704,28.396V94.5c0-11.68-8.831-17.512-17.66-17.506v336.403
	c8.829-0.001,17.66-5.839,17.66-17.506V310l91.275-38.857c6.513-2.772,10.741-9.167,10.741-16.244v-55.31
	C375.676,176.235,340.365,176.259,340.365,199.589z"/>
<g>
	<path style="fill:#9BFCFF;" d="M296.024,111.367h-80.038c-16.184,0-26.293-17.559-18.215-31.549l40.018-69.315
		c8.091-14.015,28.353-13.992,36.431,0l40.02,69.315C322.33,93.829,312.184,111.367,296.024,111.367z"/>
	<path style="fill:#9BFCFF;" d="M154.23,276.492c-25.256,0-45.802-20.546-45.802-45.801c0-25.256,20.546-45.802,45.802-45.802
		s45.802,20.546,45.802,45.802C200.033,255.946,179.486,276.492,154.23,276.492z"/>
	<path style="fill:#9BFCFF;" d="M256.005,512c-36.879,0-66.883-30.003-66.883-66.882s30.004-66.883,66.883-66.883
		s66.882,30.004,66.882,66.883C322.887,481.997,292.884,512,256.005,512z"/>
</g>
<g>
	<path style="fill:#83C9FF;" d="M314.239,79.818l-40.02-69.315C270.179,3.504,263.089,0,256,0v111.367h40.024
		C312.184,111.367,322.33,93.829,314.239,79.818z"/>
	<path style="fill:#83C9FF;" d="M382.538,220.623H333c-11.616,0-21.034-9.418-21.034-21.034v-49.538
		c0-11.616,9.418-21.034,21.034-21.034h49.538c11.616,0,21.034,9.418,21.034,21.034v49.538
		C403.572,211.206,394.154,220.623,382.538,220.623z"/>
	<path style="fill:#83C9FF;" d="M256.005,378.235c-0.001,0-0.004,0-0.005,0V512c0.001,0,0.004,0,0.005,0
		c36.879,0,66.882-30.003,66.882-66.882S292.884,378.235,256.005,378.235z"/>
</g>
</svg>